<svg xmlns="http://www.w3.org/2000/svg" viewBox="0 0 48 48" xmlns:xlink="http://www.w3.org/1999/xlink" xml:space="preserve" width="100%" height="100%"><g xmlns="http://www.w3.org/2000/svg" transform="scale(2)"><path d="M4.125 3.375v14.813a.938.938 0 0 1-1.876 0V7.125h-1.5v11.063a2.44 2.44 0 0 0 2.437 2.438h17.625a2.44 2.44 0 0 0 2.438-2.437V3.376zM21.75 18.188a.94.94 0 0 1-.937.938H5.438c.119-.276.188-.598.188-.935V4.876h16.125z"></path><path d="M13.875 6.375h-6.75v7.5h6.75zm-1.5 6h-3.75v-4.5h3.75zm3-6h4.875v1.5h-4.875zm0 3h4.875v1.5h-4.875zm0 3h4.875v1.5h-4.875z"></path></g></svg>