<svg xmlns="http://www.w3.org/2000/svg" viewBox="0 0 48 48" xmlns:xlink="http://www.w3.org/1999/xlink" xml:space="preserve" width="100%" height="100%"><g xmlns="http://www.w3.org/2000/svg" transform="scale(1.33333)"><path d="M32.12 10H3.88A1.88 1.88 0 0 0 2 11.88v18.24A1.88 1.88 0 0 0 3.88 32h28.24A1.88 1.88 0 0 0 34 30.12V11.88A1.88 1.88 0 0 0 32.12 10M32 30H4V12h28z" class="clr-i-outline clr-i-outline-path-1"></path><path d="M8.56 19.45a3 3 0 1 0-3-3 3 3 0 0 0 3 3m0-4.6A1.6 1.6 0 1 1 7 16.45a1.6 1.6 0 0 1 1.56-1.6" class="clr-i-outline clr-i-outline-path-2"></path><path d="m7.9 28 6-6 3.18 3.18L14.26 28h2l7.46-7.46L30 26.77v-2L24.2 19a.71.71 0 0 0-1 0l-5.16 5.16-3.67-3.66a.71.71 0 0 0-1 0L5.92 28z" class="clr-i-outline clr-i-outline-path-3"></path><path d="M30.14 3a1 1 0 0 0-1-1h-22a1 1 0 0 0-1 1v1h24z" class="clr-i-outline clr-i-outline-path-4"></path><path d="M32.12 7a1 1 0 0 0-1-1h-26a1 1 0 0 0-1 1v1h28z" class="clr-i-outline clr-i-outline-path-5"></path><path fill="none" d="M0 0h36v36H0z"></path></g></svg>